<?xml version="1.0" standalone="no"?>
<!DOCTYPE svg PUBLIC "-//W3C//DTD SVG 20010904//EN"
 "http://www.w3.org/TR/2001/REC-SVG-20010904/DTD/svg10.dtd">
<svg version="1.0" xmlns="http://www.w3.org/2000/svg"
 width="1756.000000pt" height="800.000000pt" viewBox="0 0 1756.000000 800.000000"
 preserveAspectRatio="xMidYMid meet">

<g transform="translate(0.000000,800.000000) scale(0.100000,-0.100000)"
fill="#000000" stroke="none">
<path d="M11910 7744 c-352 -19 -472 -28 -640 -45 -1425 -147 -2793 -613
-3997 -1362 -371 -232 -846 -585 -1088 -811 -44 -41 -36 -37 68 33 1415 959
3145 1514 5021 1612 290 15 1057 6 1306 -15 1185 -101 2192 -371 2985 -799
977 -526 1563 -1216 1740 -2047 l24 -115 -5 90 c-70 1233 -784 2206 -2077
2830 -713 344 -1524 544 -2492 615 -145 10 -731 20 -845 14z" fill="#005db8"/>
<path d="M2530 4035 l0 -1635 315 0 315 0 0 364 0 364 141 113 c78 62 144 108
147 102 73 -108 668 -936 676 -939 6 -2 172 -3 369 -2 l358 3 -491 660 c-270
362 -489 662 -488 666 2 5 208 231 458 505 250 273 457 501 458 505 2 5 -154
9 -351 9 l-355 0 -329 -357 c-182 -197 -388 -432 -462 -527 -152 -195 -149
-191 -155 -185 -3 3 1 101 9 219 11 157 15 426 15 993 l0 777 -315 0 -315 0 0
-1635z" fill="#005db8"/>
<path d="M1046 5495 c-344 -56 -588 -215 -706 -460 -66 -136 -75 -185 -75
-395 1 -174 2 -190 28 -265 49 -147 158 -304 279 -401 106 -87 195 -138 488
-285 416 -208 505 -285 518 -446 32 -400 -494 -463 -1242 -149 -60 25 -111 46
-112 46 -2 0 -4 -134 -4 -299 l0 -298 70 -32 c103 -46 278 -96 425 -122 173
-30 536 -34 685 -6 413 76 682 283 779 599 31 103 44 257 32 370 -27 241 -123
412 -315 562 -119 93 -229 157 -532 309 -149 75 -298 156 -331 181 -98 72
-143 152 -143 255 0 107 40 186 124 245 76 55 151 70 318 63 168 -6 293 -34
510 -116 75 -28 140 -51 145 -51 6 0 159 355 210 487 5 13 -206 98 -357 142
-188 56 -297 73 -510 77 -139 2 -221 -1 -284 -11z" fill="#005db8"/>
<path d="M8700 5495 c-873 -108 -1357 -718 -1316 -1660 15 -334 72 -582 189
-809 180 -352 480 -563 912 -642 79 -14 152 -18 350 -18 368 -1 595 32 958
136 l107 31 0 793 0 794 -610 0 -610 0 2 -267 3 -268 293 -3 292 -2 0 -315 c0
-290 -1 -315 -18 -324 -9 -5 -78 -17 -152 -26 -161 -21 -390 -16 -485 10 -306
84 -497 341 -550 742 -17 128 -19 350 -4 460 57 420 290 709 656 815 69 20
100 23 273 23 152 0 214 -4 280 -19 109 -23 252 -69 337 -107 37 -16 69 -26
73 -22 11 13 212 504 208 508 -12 12 -207 80 -302 105 -223 60 -389 81 -623
79 -87 -1 -205 -7 -263 -14z" fill="#005db8"/>
<path d="M13039 5223 c-6 -16 -47 -125 -90 -242 -44 -118 -84 -220 -90 -227
-5 -6 -86 -58 -179 -114 l-170 -103 0 -134 0 -133 155 0 154 0 4 -672 c3 -659
3 -675 25 -758 67 -250 198 -386 439 -452 68 -19 105 -22 278 -22 238 0 391
24 533 85 l42 18 0 237 c0 221 -1 236 -17 229 -71 -27 -233 -57 -334 -62 -137
-7 -199 9 -260 64 -76 68 -74 53 -74 728 l0 600 328 3 327 2 0 240 0 240 -330
0 -330 0 0 250 0 250 -200 0 -200 0 -11 -27z" fill="#005db8"/>
<path d="M11080 4779 c-111 -14 -265 -49 -362 -81 -96 -32 -244 -93 -265 -110
-9 -7 15 -64 94 -222 l106 -212 106 43 c226 90 405 127 576 121 129 -5 186
-25 253 -91 60 -59 84 -126 90 -259 l5 -108 -24 0 c-166 0 -571 -24 -674 -39
-429 -64 -660 -223 -737 -508 -30 -112 -30 -323 0 -445 86 -348 348 -522 762
-505 296 12 454 79 633 267 47 50 90 90 94 90 4 0 35 -71 69 -158 l60 -157
222 -3 223 -2 -3 877 c-4 990 1 922 -84 1101 -103 214 -320 351 -629 397 -108
16 -403 18 -515 4z m598 -1446 c-4 -131 -9 -168 -27 -214 -64 -165 -197 -265
-385 -289 -129 -16 -275 18 -328 77 -38 42 -58 106 -58 190 0 151 56 245 183
308 112 55 253 76 556 83 l63 2 -4 -157z" fill="#005db8"/>
<path d="M15180 4779 c-503 -64 -827 -401 -906 -943 -22 -153 -15 -491 14
-621 47 -215 136 -387 272 -526 207 -212 465 -312 840 -326 317 -12 599 34
823 134 l57 26 0 243 c0 134 -2 244 -5 244 -3 0 -34 -12 -68 -26 -306 -130
-674 -184 -897 -132 -226 53 -391 259 -402 503 l-3 60 753 3 752 2 0 228 c0
239 -12 351 -50 474 -99 322 -332 545 -655 627 -155 39 -362 51 -525 30z m274
-449 c208 -34 330 -182 361 -437 l7 -53 -451 0 -451 0 0 33 c0 59 29 167 61
232 86 176 263 260 473 225z" fill="#005db8"/>
<path d="M4860 4738 c0 -7 208 -532 462 -1167 l461 -1154 -22 -71 c-41 -128
-109 -253 -175 -321 -116 -117 -245 -157 -440 -138 -61 7 -119 15 -128 18 -17
7 -18 -9 -18 -248 l0 -255 73 -14 c106 -19 403 -17 489 5 187 46 352 140 475
270 89 94 141 171 203 300 38 78 1025 2688 1047 2770 5 16 -16 17 -335 17
l-340 0 -167 -507 c-280 -851 -313 -954 -334 -1066 -12 -59 -21 -119 -21 -133
0 -48 -19 -23 -25 34 -21 181 -58 310 -285 981 -126 376 -230 685 -230 687 0
2 -155 4 -345 4 -269 0 -345 -3 -345 -12z" fill="#005db8"/>
<path d="M14280 880 l0 -370 40 0 40 0 0 85 0 86 39 42 39 41 83 -127 83 -127
48 0 48 0 -100 150 c-55 82 -100 153 -100 157 0 4 42 49 92 100 l93 93 -50 0
-50 0 -105 -105 c-58 -58 -108 -105 -112 -105 -5 0 -8 101 -8 225 l0 225 -40
0 -40 0 0 -370z"/>
<path d="M7450 1190 c-39 -39 -12 -90 46 -90 37 0 54 16 54 51 0 55 -61 78
-100 39z"/>
<path d="M14910 1190 c-39 -39 -12 -90 46 -90 37 0 54 16 54 51 0 55 -61 78
-100 39z"/>
<path d="M8550 1155 c-35 -12 -35 -12 -38 -78 l-3 -67 -44 0 c-43 0 -45 -1
-45 -30 0 -29 2 -30 45 -30 l45 0 0 -165 c0 -180 7 -211 55 -255 23 -22 36
-25 95 -25 76 0 94 10 85 46 -5 22 -11 24 -49 21 -92 -8 -108 29 -104 235 l3
138 73 3 72 3 0 29 0 30 -75 0 -74 0 -3 78 -3 79 -35 -12z"/>
<path d="M11738 1153 l-48 -14 0 -65 0 -64 -50 0 -50 0 0 -49 0 -50 48 -3 47
-3 5 -162 c5 -155 6 -163 30 -189 34 -36 79 -54 137 -54 44 0 120 13 128 22 2
1 1 24 -2 49 l-5 47 -35 -10 c-23 -6 -45 -6 -68 2 -45 15 -57 56 -53 192 l3
103 73 3 72 3 0 49 0 50 -75 0 -75 0 0 80 c0 90 2 89 -82 63z"/>
<path d="M7983 1009 c-18 -5 -48 -25 -67 -44 l-35 -34 -3 37 c-3 35 -5 37 -40
40 l-38 3 0 -250 0 -251 40 0 40 0 0 143 c0 164 9 205 54 254 27 30 41 36 83
40 45 5 54 2 84 -25 l34 -30 3 -191 3 -191 46 0 45 0 -4 183 c-3 170 -6 186
-28 232 -14 27 -37 58 -52 69 -31 22 -116 30 -165 15z"/>
<path d="M9078 1006 c-59 -21 -85 -42 -115 -93 -23 -40 -28 -61 -31 -139 -4
-82 -2 -98 21 -147 14 -30 39 -65 58 -80 72 -55 193 -60 275 -12 60 35 70 56
40 84 -21 20 -24 21 -37 5 -20 -25 -89 -54 -127 -54 -72 0 -130 50 -147 128
l-7 32 183 0 182 0 -6 69 c-6 74 -30 132 -69 168 -53 50 -144 66 -220 39z
m141 -69 c35 -17 62 -59 71 -106 l7 -41 -144 0 -145 0 7 33 c12 51 34 86 68
107 36 23 100 26 136 7z"/>
<path d="M9773 1000 c-24 -10 -51 -33 -62 -51 l-19 -32 -7 47 c-7 44 -9 46
-41 46 l-34 0 0 -250 0 -250 39 0 39 0 4 158 c3 150 4 159 30 203 30 50 76 79
127 79 29 0 31 3 31 35 0 33 -2 35 -32 35 -18 0 -52 -9 -75 -20z"/>
<path d="M10354 1002 c-22 -11 -50 -31 -61 -46 l-21 -26 -7 40 -7 40 -64 0
-64 0 0 -250 0 -250 69 0 69 0 4 159 c3 144 5 162 24 188 31 41 84 59 121 41
42 -20 52 -63 52 -235 l1 -153 71 0 71 0 -4 188 c-3 176 -5 190 -28 231 -14
24 -37 53 -52 64 -39 29 -122 33 -174 9z"/>
<path d="M11041 1010 c-90 -21 -158 -109 -168 -218 -11 -117 36 -220 119 -264
63 -33 195 -32 258 1 51 27 90 59 90 76 0 6 -15 26 -34 44 l-35 34 -31 -26
c-56 -48 -157 -49 -197 -2 -46 52 -39 55 147 55 l170 0 0 48 c0 187 -137 295
-319 252z m121 -114 c17 -4 34 -18 43 -36 29 -57 25 -60 -85 -60 -92 0 -100 2
-100 19 0 42 64 93 105 85 6 -1 22 -5 37 -8z"/>
<path d="M13228 1005 c-55 -18 -119 -84 -136 -143 -7 -22 -12 -68 -12 -102 0
-85 16 -133 63 -186 30 -34 51 -48 95 -60 95 -28 203 -4 258 58 47 51 59 88
59 188 0 100 -12 137 -59 188 -55 61 -176 86 -268 57z m134 -55 c83 -23 133
-136 109 -246 -24 -104 -102 -158 -193 -134 -74 20 -118 92 -118 190 0 94 38
161 105 185 49 17 51 17 97 5z"/>
<path d="M13963 1000 c-24 -10 -51 -33 -62 -51 l-19 -32 -7 47 c-7 44 -9 46
-41 46 l-34 0 0 -250 0 -250 39 0 39 0 4 158 c3 150 4 159 30 203 30 50 76 79
127 79 29 0 31 3 31 35 0 33 -2 35 -32 35 -18 0 -52 -9 -75 -20z"/>
<path d="M15443 1009 c-18 -5 -48 -25 -67 -44 l-35 -34 -3 37 c-3 35 -5 37
-40 40 l-38 3 0 -250 0 -251 40 0 40 0 0 143 c0 164 9 205 54 254 27 30 41 36
83 40 45 5 54 2 84 -25 l34 -30 3 -191 3 -191 46 0 45 0 -4 183 c-3 170 -6
186 -28 232 -14 27 -37 58 -52 69 -31 22 -116 30 -165 15z"/>
<path d="M16057 1006 c-52 -19 -76 -42 -103 -101 -32 -68 -34 -208 -3 -275 40
-88 92 -123 184 -124 62 0 94 12 133 47 l22 20 0 -49 c-1 -66 -30 -128 -72
-150 -41 -22 -136 -23 -195 -1 l-41 15 -13 -30 c-14 -34 -8 -42 51 -57 110
-30 207 -21 267 25 18 14 43 44 56 67 21 40 22 54 25 330 l3 287 -34 0 c-32 0
-35 -3 -42 -36 -6 -36 -6 -36 -22 -14 -36 52 -139 73 -216 46z m149 -65 c64
-29 94 -119 79 -237 -10 -79 -52 -125 -121 -131 -37 -3 -57 1 -81 16 -52 33
-68 73 -68 176 0 108 18 148 80 176 50 23 60 23 111 0z"/>
<path d="M7450 760 l0 -250 40 0 40 0 0 250 0 250 -40 0 -40 0 0 -250z"/>
<path d="M12274 763 l62 -248 39 0 39 0 57 194 c32 106 60 195 62 197 2 2 30
-86 63 -196 l59 -201 39 3 40 3 62 248 62 247 -44 0 c-50 0 -43 16 -84 -185
-17 -82 -34 -159 -39 -169 -5 -14 -23 33 -62 165 l-55 184 -40 3 -40 3 -54
-186 c-30 -102 -57 -182 -60 -178 -4 5 -17 58 -29 118 -13 61 -29 140 -38 178
l-15 67 -43 0 -43 0 62 -247z"/>
<path d="M14910 760 l0 -250 40 0 40 0 0 250 0 250 -40 0 -40 0 0 -250z"/>
</g>
</svg>
